<svg xmlns="http://www.w3.org/2000/svg" xmlns:xlink="http://www.w3.org/1999/xlink" width="1080" zoomAndPan="magnify" viewBox="0 0 810 809.999993" height="1080" preserveAspectRatio="xMidYMid meet" version="1.2"><defs><clipPath id="677a531a6d"><path d="M 301 64.5625 L 385 64.5625 L 385 526 L 301 526 Z M 301 64.5625 "/></clipPath><clipPath id="2a4785dbe0"><path d="M 32.113281 518 L 777 518 L 777 533 L 32.113281 533 Z M 32.113281 518 "/></clipPath><clipPath id="6e59397983"><path d="M 204 380 L 606 380 L 606 781.5625 L 204 781.5625 Z M 204 380 "/></clipPath></defs><g id="7222c93e42"><path style=" stroke:none;fill-rule:nonzero;fill:#29a8df;fill-opacity:1;" d="M 77.550781 315.480469 L 114.695312 315.480469 C 115.441406 315.480469 116.1875 315.515625 116.929688 315.589844 C 117.671875 315.664062 118.410156 315.773438 119.144531 315.917969 C 119.875 316.066406 120.601562 316.246094 121.316406 316.460938 C 122.027344 316.679688 122.730469 316.929688 123.421875 317.21875 C 124.109375 317.503906 124.785156 317.820312 125.445312 318.175781 C 126.101562 318.527344 126.742188 318.910156 127.363281 319.324219 C 127.984375 319.742188 128.582031 320.183594 129.160156 320.660156 C 129.738281 321.132812 130.289062 321.632812 130.816406 322.164062 C 131.347656 322.691406 131.847656 323.246094 132.320312 323.820312 C 132.792969 324.398438 133.238281 325 133.652344 325.621094 C 134.066406 326.242188 134.453125 326.882812 134.804688 327.539062 C 135.15625 328.199219 135.472656 328.875 135.761719 329.566406 C 136.046875 330.253906 136.296875 330.957031 136.511719 331.671875 C 136.730469 332.386719 136.910156 333.113281 137.058594 333.84375 C 137.203125 334.578125 137.3125 335.316406 137.386719 336.058594 C 137.457031 336.800781 137.496094 337.546875 137.496094 338.296875 L 137.496094 525.285156 L 54.753906 525.285156 L 54.753906 338.296875 C 54.753906 337.546875 54.789062 336.800781 54.863281 336.058594 C 54.9375 335.316406 55.046875 334.578125 55.191406 333.84375 C 55.335938 333.113281 55.515625 332.386719 55.734375 331.671875 C 55.949219 330.957031 56.203125 330.253906 56.488281 329.566406 C 56.773438 328.875 57.09375 328.199219 57.445312 327.542969 C 57.796875 326.882812 58.179688 326.242188 58.59375 325.621094 C 59.007812 325 59.453125 324.398438 59.925781 323.824219 C 60.398438 323.246094 60.902344 322.691406 61.429688 322.164062 C 61.957031 321.636719 62.507812 321.132812 63.085938 320.660156 C 63.664062 320.1875 64.261719 319.742188 64.882812 319.324219 C 65.503906 318.910156 66.144531 318.527344 66.800781 318.175781 C 67.460938 317.824219 68.136719 317.503906 68.824219 317.21875 C 69.515625 316.933594 70.21875 316.679688 70.933594 316.464844 C 71.644531 316.246094 72.371094 316.066406 73.101562 315.917969 C 73.835938 315.773438 74.574219 315.664062 75.316406 315.589844 C 76.058594 315.515625 76.804688 315.480469 77.550781 315.480469 Z M 77.550781 315.480469 "/><path style=" stroke:none;fill-rule:nonzero;fill:#29a8df;fill-opacity:1;" d="M 201.050781 226.535156 L 238.195312 226.535156 C 238.941406 226.535156 239.6875 226.570312 240.429688 226.644531 C 241.171875 226.71875 241.910156 226.828125 242.640625 226.972656 C 243.375 227.117188 244.097656 227.300781 244.8125 227.515625 C 245.527344 227.734375 246.230469 227.984375 246.917969 228.269531 C 247.609375 228.554688 248.28125 228.875 248.941406 229.226562 C 249.601562 229.578125 250.238281 229.964844 250.859375 230.378906 C 251.480469 230.792969 252.082031 231.238281 252.65625 231.710938 C 253.234375 232.1875 253.789062 232.6875 254.316406 233.214844 C 254.84375 233.742188 255.34375 234.296875 255.816406 234.875 C 256.292969 235.453125 256.734375 236.050781 257.152344 236.671875 C 257.566406 237.292969 257.949219 237.933594 258.300781 238.59375 C 258.652344 239.25 258.972656 239.925781 259.257812 240.617188 C 259.542969 241.304688 259.792969 242.007812 260.011719 242.722656 C 260.226562 243.4375 260.410156 244.160156 260.554688 244.894531 C 260.699219 245.628906 260.808594 246.367188 260.882812 247.109375 C 260.957031 247.851562 260.992188 248.597656 260.992188 249.34375 L 260.992188 525.285156 L 178.25 525.285156 L 178.25 249.34375 C 178.25 248.597656 178.289062 247.851562 178.363281 247.109375 C 178.433594 246.367188 178.542969 245.628906 178.691406 244.894531 C 178.835938 244.164062 179.015625 243.4375 179.234375 242.722656 C 179.449219 242.007812 179.703125 241.304688 179.988281 240.617188 C 180.273438 239.925781 180.589844 239.25 180.945312 238.59375 C 181.296875 237.933594 181.679688 237.292969 182.09375 236.671875 C 182.507812 236.050781 182.953125 235.453125 183.425781 234.875 C 183.898438 234.296875 184.402344 233.742188 184.929688 233.214844 C 185.457031 232.6875 186.007812 232.1875 186.585938 231.710938 C 187.164062 231.238281 187.761719 230.792969 188.382812 230.378906 C 189.003906 229.964844 189.644531 229.582031 190.300781 229.226562 C 190.960938 228.875 191.636719 228.558594 192.324219 228.269531 C 193.015625 227.984375 193.714844 227.734375 194.429688 227.515625 C 195.144531 227.300781 195.867188 227.117188 196.601562 226.972656 C 197.332031 226.828125 198.070312 226.71875 198.8125 226.644531 C 199.558594 226.570312 200.300781 226.535156 201.050781 226.535156 Z M 201.050781 226.535156 "/><g clip-rule="nonzero" clip-path="url(#677a531a6d)"><path style=" stroke:none;fill-rule:nonzero;fill:#0071b9;fill-opacity:1;" d="M 324.550781 64.5625 L 361.695312 64.5625 C 362.441406 64.5625 363.1875 64.597656 363.929688 64.671875 C 364.671875 64.742188 365.410156 64.851562 366.140625 65 C 366.875 65.144531 367.597656 65.328125 368.3125 65.542969 C 369.027344 65.761719 369.730469 66.011719 370.417969 66.296875 C 371.109375 66.582031 371.785156 66.902344 372.441406 67.253906 C 373.101562 67.605469 373.742188 67.992188 374.359375 68.40625 C 374.980469 68.820312 375.582031 69.265625 376.160156 69.738281 C 376.734375 70.210938 377.289062 70.714844 377.816406 71.242188 C 378.34375 71.769531 378.84375 72.324219 379.320312 72.902344 C 379.792969 73.476562 380.238281 74.078125 380.652344 74.699219 C 381.066406 75.320312 381.449219 75.960938 381.800781 76.617188 C 382.152344 77.277344 382.472656 77.953125 382.757812 78.644531 C 383.042969 79.332031 383.296875 80.035156 383.511719 80.75 C 383.730469 81.464844 383.910156 82.1875 384.054688 82.921875 C 384.199219 83.65625 384.3125 84.394531 384.382812 85.136719 C 384.457031 85.878906 384.492188 86.625 384.492188 87.371094 L 384.492188 525.285156 L 301.753906 525.285156 L 301.753906 87.371094 C 301.753906 86.625 301.789062 85.878906 301.863281 85.136719 C 301.933594 84.394531 302.042969 83.65625 302.191406 82.921875 C 302.335938 82.1875 302.515625 81.464844 302.734375 80.75 C 302.949219 80.035156 303.203125 79.332031 303.488281 78.644531 C 303.773438 77.953125 304.09375 77.277344 304.445312 76.621094 C 304.796875 75.960938 305.179688 75.320312 305.59375 74.699219 C 306.007812 74.078125 306.453125 73.480469 306.925781 72.902344 C 307.402344 72.324219 307.902344 71.769531 308.429688 71.242188 C 308.957031 70.714844 309.507812 70.214844 310.085938 69.738281 C 310.664062 69.265625 311.261719 68.820312 311.882812 68.40625 C 312.503906 67.992188 313.144531 67.605469 313.804688 67.253906 C 314.460938 66.902344 315.136719 66.582031 315.824219 66.296875 C 316.515625 66.011719 317.21875 65.761719 317.929688 65.542969 C 318.644531 65.328125 319.371094 65.144531 320.101562 65 C 320.835938 64.855469 321.570312 64.746094 322.316406 64.671875 C 323.058594 64.597656 323.800781 64.5625 324.550781 64.5625 Z M 324.550781 64.5625 "/></g><path style=" stroke:none;fill-rule:nonzero;fill:#29a8df;fill-opacity:1;" d="M 448.042969 122.152344 L 485.191406 122.152344 C 485.9375 122.152344 486.679688 122.1875 487.425781 122.261719 C 488.167969 122.335938 488.90625 122.445312 489.636719 122.589844 C 490.371094 122.734375 491.09375 122.917969 491.808594 123.132812 C 492.523438 123.351562 493.226562 123.601562 493.914062 123.886719 C 494.605469 124.171875 495.277344 124.492188 495.9375 124.84375 C 496.59375 125.195312 497.234375 125.582031 497.855469 125.996094 C 498.476562 126.410156 499.074219 126.855469 499.652344 127.328125 C 500.230469 127.804688 500.78125 128.304688 501.3125 128.832031 C 501.839844 129.359375 502.339844 129.914062 502.8125 130.492188 C 503.289062 131.070312 503.730469 131.667969 504.144531 132.289062 C 504.5625 132.910156 504.945312 133.550781 505.296875 134.210938 C 505.648438 134.867188 505.96875 135.542969 506.253906 136.234375 C 506.539062 136.921875 506.789062 137.625 507.007812 138.339844 C 507.222656 139.054688 507.40625 139.78125 507.550781 140.511719 C 507.695312 141.246094 507.804688 141.984375 507.878906 142.726562 C 507.953125 143.46875 507.988281 144.214844 507.988281 144.960938 L 507.988281 525.285156 L 425.246094 525.285156 L 425.246094 144.960938 C 425.246094 144.214844 425.285156 143.46875 425.355469 142.726562 C 425.429688 141.984375 425.539062 141.246094 425.683594 140.511719 C 425.832031 139.78125 426.011719 139.054688 426.230469 138.339844 C 426.445312 137.625 426.695312 136.921875 426.984375 136.234375 C 427.269531 135.542969 427.585938 134.867188 427.9375 134.210938 C 428.292969 133.550781 428.675781 132.910156 429.089844 132.289062 C 429.503906 131.667969 429.949219 131.070312 430.421875 130.492188 C 430.894531 129.914062 431.394531 129.363281 431.925781 128.832031 C 432.453125 128.304688 433.003906 127.804688 433.582031 127.328125 C 434.160156 126.855469 434.757812 126.410156 435.378906 125.996094 C 436 125.582031 436.640625 125.199219 437.296875 124.84375 C 437.957031 124.492188 438.628906 124.175781 439.320312 123.886719 C 440.011719 123.601562 440.710938 123.351562 441.425781 123.132812 C 442.140625 122.917969 442.863281 122.734375 443.597656 122.589844 C 444.328125 122.445312 445.066406 122.335938 445.808594 122.261719 C 446.554688 122.1875 447.296875 122.152344 448.042969 122.152344 Z M 448.042969 122.152344 "/><path style=" stroke:none;fill-rule:nonzero;fill:#0071b9;fill-opacity:1;" d="M 571.542969 226.535156 L 608.6875 226.535156 C 609.433594 226.535156 610.179688 226.570312 610.921875 226.644531 C 611.667969 226.71875 612.402344 226.828125 613.136719 226.972656 C 613.867188 227.117188 614.59375 227.300781 615.304688 227.515625 C 616.019531 227.734375 616.722656 227.984375 617.414062 228.269531 C 618.101562 228.554688 618.777344 228.875 619.4375 229.226562 C 620.09375 229.578125 620.734375 229.964844 621.355469 230.378906 C 621.976562 230.792969 622.574219 231.238281 623.152344 231.710938 C 623.730469 232.1875 624.28125 232.6875 624.808594 233.214844 C 625.335938 233.742188 625.839844 234.296875 626.3125 234.875 C 626.785156 235.453125 627.230469 236.050781 627.644531 236.671875 C 628.058594 237.292969 628.441406 237.933594 628.796875 238.59375 C 629.148438 239.25 629.464844 239.925781 629.75 240.617188 C 630.039062 241.304688 630.289062 242.007812 630.503906 242.722656 C 630.722656 243.4375 630.902344 244.160156 631.050781 244.894531 C 631.195312 245.628906 631.304688 246.367188 631.378906 247.109375 C 631.449219 247.851562 631.488281 248.597656 631.488281 249.34375 L 631.488281 525.285156 L 548.746094 525.285156 L 548.746094 249.34375 C 548.746094 248.597656 548.78125 247.851562 548.855469 247.109375 C 548.929688 246.367188 549.039062 245.628906 549.183594 244.894531 C 549.328125 244.164062 549.511719 243.4375 549.726562 242.722656 C 549.945312 242.007812 550.195312 241.304688 550.480469 240.617188 C 550.765625 239.925781 551.085938 239.25 551.4375 238.59375 C 551.789062 237.933594 552.171875 237.292969 552.585938 236.671875 C 553.003906 236.050781 553.445312 235.453125 553.921875 234.875 C 554.394531 234.296875 554.894531 233.742188 555.421875 233.214844 C 555.949219 232.6875 556.503906 232.1875 557.082031 231.710938 C 557.65625 231.238281 558.257812 230.792969 558.878906 230.378906 C 559.5 229.964844 560.136719 229.582031 560.796875 229.226562 C 561.453125 228.875 562.128906 228.558594 562.820312 228.269531 C 563.507812 227.984375 564.210938 227.734375 564.925781 227.515625 C 565.640625 227.300781 566.363281 227.117188 567.09375 226.972656 C 567.828125 226.828125 568.566406 226.71875 569.308594 226.644531 C 570.050781 226.570312 570.796875 226.535156 571.542969 226.535156 Z M 571.542969 226.535156 "/><path style=" stroke:none;fill-rule:nonzero;fill:#29a8df;fill-opacity:1;" d="M 695.042969 315.480469 L 732.1875 315.480469 C 732.933594 315.480469 733.679688 315.515625 734.421875 315.589844 C 735.164062 315.664062 735.902344 315.773438 736.636719 315.917969 C 737.367188 316.066406 738.089844 316.246094 738.804688 316.464844 C 739.519531 316.679688 740.222656 316.933594 740.910156 317.21875 C 741.601562 317.503906 742.277344 317.824219 742.933594 318.175781 C 743.59375 318.527344 744.234375 318.910156 744.855469 319.324219 C 745.472656 319.742188 746.074219 320.1875 746.652344 320.660156 C 747.226562 321.132812 747.78125 321.636719 748.308594 322.164062 C 748.835938 322.691406 749.335938 323.246094 749.8125 323.824219 C 750.285156 324.398438 750.730469 325 751.144531 325.621094 C 751.558594 326.242188 751.941406 326.882812 752.292969 327.542969 C 752.644531 328.199219 752.964844 328.875 753.25 329.566406 C 753.535156 330.253906 753.785156 330.957031 754.003906 331.671875 C 754.21875 332.386719 754.402344 333.113281 754.546875 333.84375 C 754.691406 334.578125 754.800781 335.316406 754.875 336.058594 C 754.949219 336.800781 754.984375 337.546875 754.984375 338.296875 L 754.984375 525.285156 L 672.242188 525.285156 L 672.242188 338.296875 C 672.242188 337.546875 672.277344 336.800781 672.351562 336.058594 C 672.425781 335.316406 672.535156 334.578125 672.679688 333.84375 C 672.824219 333.113281 673.007812 332.386719 673.222656 331.671875 C 673.441406 330.957031 673.691406 330.253906 673.976562 329.566406 C 674.261719 328.875 674.582031 328.199219 674.933594 327.539062 C 675.285156 326.882812 675.667969 326.242188 676.082031 325.621094 C 676.5 325 676.941406 324.398438 677.417969 323.820312 C 677.890625 323.246094 678.390625 322.691406 678.917969 322.164062 C 679.445312 321.632812 680 321.132812 680.578125 320.660156 C 681.152344 320.183594 681.753906 319.742188 682.375 319.324219 C 682.996094 318.910156 683.636719 318.527344 684.292969 318.175781 C 684.953125 317.820312 685.625 317.503906 686.316406 317.21875 C 687.007812 316.929688 687.707031 316.679688 688.421875 316.460938 C 689.136719 316.246094 689.859375 316.066406 690.59375 315.917969 C 691.324219 315.773438 692.0625 315.664062 692.808594 315.589844 C 693.550781 315.515625 694.292969 315.480469 695.042969 315.480469 Z M 695.042969 315.480469 "/><g clip-rule="nonzero" clip-path="url(#2a4785dbe0)"><path style="fill:none;stroke-width:8;stroke-linecap:round;stroke-linejoin:round;stroke:#333652;stroke-opacity:1;stroke-miterlimit:4;" d="M 409.706903 256.000709 L 4.000649 256.000709 " transform="matrix(1.798725,0,0,1.799699,32.796121,64.560955)"/></g><path style=" stroke:none;fill-rule:nonzero;fill:#ffffff;fill-opacity:1;" d="M 597.929688 581.15625 C 597.929688 584.316406 597.851562 587.476562 597.699219 590.632812 C 597.542969 593.792969 597.308594 596.941406 597 600.089844 C 596.691406 603.234375 596.304688 606.371094 595.839844 609.5 C 595.378906 612.625 594.835938 615.738281 594.21875 618.839844 C 593.605469 621.941406 592.910156 625.023438 592.144531 628.089844 C 591.375 631.15625 590.535156 634.203125 589.617188 637.230469 C 588.699219 640.253906 587.710938 643.253906 586.644531 646.230469 C 585.582031 649.207031 584.441406 652.15625 583.234375 655.078125 C 582.023438 657.996094 580.746094 660.886719 579.394531 663.746094 C 578.042969 666.601562 576.625 669.425781 575.132812 672.214844 C 573.644531 675 572.085938 677.75 570.464844 680.464844 C 568.839844 683.175781 567.148438 685.84375 565.394531 688.472656 C 563.636719 691.101562 561.820312 693.6875 559.9375 696.226562 C 558.054688 698.765625 556.113281 701.253906 554.105469 703.699219 C 552.101562 706.144531 550.039062 708.535156 547.917969 710.878906 C 545.796875 713.222656 543.617188 715.511719 541.382812 717.746094 C 539.148438 719.980469 536.863281 722.160156 534.519531 724.28125 C 532.179688 726.40625 529.789062 728.46875 527.34375 730.476562 C 524.902344 732.480469 522.414062 734.425781 519.875 736.308594 C 517.335938 738.191406 514.753906 740.011719 512.128906 741.769531 C 509.5 743.523438 506.832031 745.214844 504.121094 746.839844 C 501.410156 748.464844 498.664062 750.023438 495.875 751.515625 C 493.089844 753.003906 490.269531 754.425781 487.414062 755.777344 C 484.554688 757.128906 481.667969 758.410156 478.75 759.617188 C 475.832031 760.828125 472.882812 761.964844 469.910156 763.03125 C 466.933594 764.097656 463.933594 765.085938 460.910156 766.003906 C 457.886719 766.921875 454.84375 767.765625 451.777344 768.535156 C 448.714844 769.300781 445.632812 769.992188 442.53125 770.609375 C 439.433594 771.226562 436.320312 771.769531 433.195312 772.230469 C 430.070312 772.695312 426.9375 773.082031 423.792969 773.390625 C 420.648438 773.703125 417.496094 773.933594 414.339844 774.089844 C 411.183594 774.246094 408.027344 774.324219 404.867188 774.324219 C 401.707031 774.324219 398.550781 774.246094 395.394531 774.089844 C 392.238281 773.933594 389.089844 773.703125 385.945312 773.390625 C 382.800781 773.082031 379.664062 772.695312 376.539062 772.230469 C 373.414062 771.769531 370.300781 771.226562 367.203125 770.609375 C 364.105469 769.996094 361.023438 769.300781 357.957031 768.535156 C 354.890625 767.765625 351.847656 766.921875 348.824219 766.003906 C 345.800781 765.085938 342.800781 764.097656 339.828125 763.03125 C 336.851562 761.964844 333.90625 760.828125 330.984375 759.617188 C 328.066406 758.410156 325.179688 757.128906 322.324219 755.777344 C 319.464844 754.425781 316.644531 753.003906 313.859375 751.515625 C 311.070312 750.023438 308.324219 748.464844 305.613281 746.839844 C 302.902344 745.214844 300.234375 743.523438 297.609375 741.769531 C 294.980469 740.011719 292.398438 738.191406 289.859375 736.308594 C 287.324219 734.425781 284.832031 732.480469 282.390625 730.476562 C 279.949219 728.46875 277.554688 726.40625 275.214844 724.28125 C 272.875 722.160156 270.585938 719.980469 268.351562 717.746094 C 266.117188 715.511719 263.941406 713.222656 261.816406 710.878906 C 259.695312 708.535156 257.632812 706.144531 255.628906 703.699219 C 253.625 701.253906 251.679688 698.765625 249.796875 696.226562 C 247.917969 693.6875 246.097656 691.101562 244.34375 688.472656 C 242.585938 685.84375 240.898438 683.175781 239.273438 680.464844 C 237.648438 677.75 236.089844 675 234.601562 672.214844 C 233.113281 669.425781 231.691406 666.601562 230.339844 663.746094 C 228.992188 660.886719 227.710938 657.996094 226.5 655.078125 C 225.292969 652.15625 224.15625 649.207031 223.089844 646.230469 C 222.027344 643.253906 221.035156 640.253906 220.117188 637.230469 C 219.203125 634.203125 218.359375 631.15625 217.589844 628.089844 C 216.824219 625.023438 216.132812 621.941406 215.515625 618.839844 C 214.898438 615.738281 214.359375 612.625 213.894531 609.5 C 213.429688 606.371094 213.042969 603.234375 212.734375 600.089844 C 212.425781 596.941406 212.191406 593.792969 212.039062 590.632812 C 211.882812 587.476562 211.804688 584.316406 211.804688 581.15625 C 211.804688 577.996094 211.882812 574.835938 212.039062 571.675781 C 212.191406 568.519531 212.425781 565.367188 212.734375 562.222656 C 213.042969 559.074219 213.429688 555.9375 213.894531 552.8125 C 214.359375 549.683594 214.898438 546.570312 215.515625 543.46875 C 216.132812 540.371094 216.824219 537.285156 217.589844 534.21875 C 218.359375 531.152344 219.203125 528.105469 220.117188 525.082031 C 221.035156 522.058594 222.027344 519.054688 223.089844 516.078125 C 224.15625 513.101562 225.292969 510.152344 226.5 507.234375 C 227.710938 504.3125 228.992188 501.421875 230.339844 498.566406 C 231.691406 495.707031 233.113281 492.886719 234.601562 490.097656 C 236.089844 487.308594 237.648438 484.558594 239.273438 481.847656 C 240.898438 479.136719 242.585938 476.464844 244.34375 473.835938 C 246.097656 471.210938 247.917969 468.625 249.796875 466.085938 C 251.679688 463.546875 253.625 461.054688 255.628906 458.613281 C 257.632812 456.167969 259.695312 453.773438 261.816406 451.433594 C 263.941406 449.089844 266.117188 446.800781 268.351562 444.566406 C 270.585938 442.332031 272.875 440.152344 275.214844 438.027344 C 277.554688 435.90625 279.949219 433.839844 282.390625 431.835938 C 284.832031 429.828125 287.324219 427.886719 289.859375 426.003906 C 292.398438 424.117188 294.980469 422.300781 297.609375 420.542969 C 300.234375 418.785156 302.902344 417.097656 305.613281 415.46875 C 308.324219 413.84375 311.070312 412.289062 313.859375 410.796875 C 316.644531 409.308594 319.464844 407.886719 322.324219 406.535156 C 325.179688 405.183594 328.066406 403.902344 330.984375 402.691406 C 333.90625 401.484375 336.851562 400.34375 339.828125 399.28125 C 342.800781 398.214844 345.800781 397.222656 348.824219 396.304688 C 351.847656 395.386719 354.890625 394.546875 357.957031 393.777344 C 361.023438 393.007812 364.105469 392.316406 367.203125 391.699219 C 370.300781 391.082031 373.414062 390.542969 376.539062 390.078125 C 379.664062 389.617188 382.800781 389.226562 385.945312 388.917969 C 389.089844 388.609375 392.238281 388.375 395.394531 388.222656 C 398.550781 388.066406 401.707031 387.988281 404.867188 387.988281 C 408.027344 387.988281 411.183594 388.066406 414.339844 388.222656 C 417.496094 388.375 420.648438 388.609375 423.792969 388.917969 C 426.9375 389.226562 430.070312 389.617188 433.195312 390.078125 C 436.320312 390.542969 439.433594 391.082031 442.53125 391.699219 C 445.632812 392.316406 448.714844 393.007812 451.777344 393.777344 C 454.84375 394.546875 457.886719 395.386719 460.910156 396.304688 C 463.933594 397.222656 466.933594 398.214844 469.910156 399.28125 C 472.882812 400.34375 475.832031 401.484375 478.75 402.691406 C 481.667969 403.902344 484.554688 405.183594 487.414062 406.535156 C 490.269531 407.886719 493.089844 409.308594 495.875 410.796875 C 498.664062 412.289062 501.410156 413.84375 504.121094 415.46875 C 506.832031 417.097656 509.5 418.785156 512.128906 420.542969 C 514.753906 422.300781 517.335938 424.117188 519.875 426.003906 C 522.414062 427.886719 524.902344 429.828125 527.34375 431.835938 C 529.789062 433.839844 532.179688 435.90625 534.519531 438.027344 C 536.863281 440.152344 539.148438 442.332031 541.382812 444.566406 C 543.617188 446.800781 545.796875 449.089844 547.917969 451.433594 C 550.039062 453.773438 552.101562 456.167969 554.105469 458.613281 C 556.113281 461.054688 558.054688 463.546875 559.9375 466.085938 C 561.820312 468.625 563.636719 471.210938 565.394531 473.835938 C 567.148438 476.464844 568.839844 479.136719 570.464844 481.847656 C 572.085938 484.558594 573.644531 487.308594 575.132812 490.097656 C 576.625 492.886719 578.042969 495.707031 579.394531 498.566406 C 580.746094 501.421875 582.023438 504.3125 583.234375 507.234375 C 584.441406 510.152344 585.582031 513.101562 586.644531 516.078125 C 587.710938 519.054688 588.699219 522.058594 589.617188 525.082031 C 590.535156 528.105469 591.375 531.152344 592.144531 534.21875 C 592.910156 537.285156 593.605469 540.371094 594.21875 543.46875 C 594.835938 546.570312 595.378906 549.683594 595.839844 552.8125 C 596.304688 555.9375 596.691406 559.074219 597 562.222656 C 597.308594 565.367188 597.542969 568.519531 597.699219 571.675781 C 597.851562 574.835938 597.929688 577.996094 597.929688 581.15625 Z M 597.929688 581.15625 "/><g clip-rule="nonzero" clip-path="url(#6e59397983)"><path style="fill:none;stroke-width:8;stroke-linecap:round;stroke-linejoin:round;stroke:#333652;stroke-opacity:1;stroke-miterlimit:4;" d="M 314.185673 287.045398 C 314.185673 288.801334 314.14224 290.55727 314.057544 292.311036 C 313.970677 294.066972 313.840376 295.816397 313.668814 297.565821 C 313.497251 299.313075 313.282255 301.055988 313.023826 302.79456 C 312.767568 304.530962 312.465705 306.260852 312.12258 307.98423 C 311.781626 309.707609 311.395068 311.420135 310.969419 313.123979 C 310.541599 314.827823 310.074688 316.520815 309.564344 318.202954 C 309.054 319.882922 308.504565 321.549868 307.911697 323.20379 C 307.321001 324.857712 306.686871 326.496441 306.015823 328.119977 C 305.342603 329.741342 304.632464 331.347513 303.881064 332.936321 C 303.129664 334.522958 302.341345 336.092231 301.511764 337.641969 C 300.684355 339.189537 299.817856 340.71757 298.916609 342.226069 C 298.013192 343.732397 297.072855 345.21485 296.097772 346.675598 C 295.120517 348.136346 294.110687 349.573218 293.063939 350.984044 C 292.01719 352.394871 290.937867 353.77748 289.821625 355.136214 C 288.707554 356.494949 287.560908 357.823296 286.381688 359.125597 C 285.202467 360.427898 283.990671 361.699812 282.748471 362.941339 C 281.506272 364.182867 280.235841 365.394007 278.932834 366.572589 C 277.631999 367.753342 276.302933 368.899367 274.943463 370.015005 C 273.586164 371.128473 272.202806 372.209383 270.791216 373.255565 C 269.379625 374.301747 267.944147 375.3132 266.484779 376.289926 C 265.023241 377.264482 263.539985 378.204309 262.032841 379.107238 C 260.525697 380.010167 258.999007 380.876197 257.44843 381.705329 C 255.900024 382.53229 254.332073 383.322353 252.744577 384.073346 C 251.154909 384.82434 249.550039 385.536265 247.927796 386.20695 C 246.305553 386.879805 244.665937 387.511421 243.01329 388.103968 C 241.358472 388.696515 239.690624 389.245652 238.009746 389.75572 C 236.328867 390.265788 234.637131 390.734617 232.932364 391.162206 C 231.229769 391.587624 229.516315 391.971803 227.792003 392.314742 C 226.069863 392.657681 224.339036 392.959381 222.601694 393.2155 C 220.864353 393.47379 219.122667 393.68867 217.374467 393.86014 C 215.626267 394.03378 213.873723 394.161839 212.119008 394.248659 C 210.364292 394.335479 208.609577 394.378889 206.85269 394.378889 C 205.095803 394.378889 203.341088 394.335479 201.586372 394.248659 C 199.831657 394.161839 198.081285 394.03378 196.333085 393.86014 C 194.584885 393.68867 192.841028 393.47379 191.103686 393.2155 C 189.366344 392.959381 187.635517 392.657681 185.913377 392.314742 C 184.191237 391.973973 182.477783 391.587624 180.773016 391.162206 C 179.06825 390.734617 177.376513 390.265788 175.695635 389.75572 C 174.014756 389.245652 172.346908 388.696515 170.694262 388.103968 C 169.039443 387.511421 167.401999 386.879805 165.777584 386.20695 C 164.155341 385.536265 162.550471 384.82434 160.962975 384.073346 C 159.373307 383.322353 157.805356 382.53229 156.25695 381.705329 C 154.706373 380.876197 153.179683 380.010167 151.672539 379.107238 C 150.165395 378.204309 148.68214 377.264482 147.222772 376.289926 C 145.761234 375.3132 144.325755 374.301747 142.914164 373.255565 C 141.504746 372.209383 140.119216 371.128473 138.761917 370.015005 C 137.404619 368.899367 136.073381 367.753342 134.772546 366.572589 C 133.471711 365.394007 132.199108 364.182867 130.956909 362.941339 C 129.714709 361.699812 128.505085 360.427898 127.323693 359.125597 C 126.144472 357.823296 124.997826 356.494949 123.883756 355.136214 C 122.769685 353.77748 121.68819 352.394871 120.641441 350.984044 C 119.596864 349.573218 118.584863 348.136346 117.60978 346.675598 C 116.632525 345.21485 115.69436 343.732397 114.790942 342.226069 C 113.887525 340.71757 113.021025 339.189537 112.193616 337.641969 C 111.366207 336.092231 110.575717 334.522958 109.824316 332.936321 C 109.075087 331.347513 108.362777 329.741342 107.689557 328.119977 C 107.018509 326.496441 106.386551 324.857712 105.793683 323.20379 C 105.202987 321.549868 104.651381 319.882922 104.141036 318.202954 C 103.632864 316.520815 103.163782 314.827823 102.735961 313.123979 C 102.310312 311.420135 101.925926 309.707609 101.5828 307.98423 C 101.239675 306.260852 100.939984 304.530962 100.681554 302.79456 C 100.423125 301.055988 100.208129 299.313075 100.036566 297.565821 C 99.865004 295.816397 99.734703 294.066972 99.650008 292.311036 C 99.563141 290.55727 99.519707 288.801334 99.519707 287.045398 C 99.519707 285.289462 99.563141 283.533526 99.650008 281.77759 C 99.734703 280.023825 99.865004 278.272229 100.036566 276.524975 C 100.208129 274.775551 100.423125 273.032638 100.681554 271.296236 C 100.939984 269.557664 101.239675 267.827774 101.5828 266.104396 C 101.925926 264.383188 102.310312 262.668491 102.735961 260.964647 C 103.163782 259.260803 103.632864 257.567812 104.141036 255.887843 C 104.651381 254.207875 105.202987 252.538759 105.793683 250.884836 C 106.386551 249.230914 107.018509 247.592185 107.689557 245.97082 C 108.362777 244.347284 109.075087 242.741113 109.824316 241.154476 C 110.575717 239.565668 111.366207 237.998566 112.193616 236.448828 C 113.021025 234.899089 113.887525 233.371056 114.790942 231.864728 C 115.69436 230.358399 116.632525 228.873776 117.60978 227.413028 C 118.584863 225.954451 119.596864 224.517579 120.641441 223.106752 C 121.68819 221.695926 122.769685 220.311146 123.883756 218.954582 C 124.997826 217.595848 126.144472 216.26533 127.323693 214.9652 C 128.505085 213.662898 129.714709 212.390984 130.956909 211.149457 C 132.199108 209.90793 133.471711 208.69679 134.772546 207.516037 C 136.073381 206.337454 137.404619 205.189259 138.761917 204.075791 C 140.119216 202.960153 141.504746 201.881414 142.914164 200.835232 C 144.325755 199.786879 145.761234 198.777596 147.222772 197.80087 C 148.68214 196.824144 150.165395 195.886488 151.672539 194.981388 C 153.179683 194.078459 154.706373 193.2146 156.25695 192.385468 C 157.805356 191.558507 159.373307 190.768444 160.962975 190.01745 C 162.550471 189.266457 164.155341 188.554532 165.777584 187.881676 C 167.401999 187.210991 169.039443 186.577205 170.694262 185.986828 C 172.346908 185.394281 174.014756 184.842974 175.695635 184.332906 C 177.376513 183.822838 179.06825 183.35618 180.773016 182.928591 C 182.477783 182.501002 184.191237 182.116823 185.913377 181.773884 C 187.635517 181.430945 189.366344 181.131415 191.103686 180.873126 C 192.841028 180.617006 194.584885 180.399956 196.333085 180.228487 C 198.081285 180.057017 199.831657 179.926787 201.586372 179.842137 C 203.341088 179.755317 205.095803 179.711907 206.85269 179.711907 C 208.609577 179.711907 210.364292 179.755317 212.119008 179.842137 C 213.873723 179.926787 215.626267 180.057017 217.374467 180.228487 C 219.122667 180.399956 220.864353 180.617006 222.601694 180.873126 C 224.339036 181.131415 226.069863 181.430945 227.792003 181.773884 C 229.516315 182.116823 231.229769 182.501002 232.932364 182.928591 C 234.637131 183.35618 236.328867 183.822838 238.009746 184.332906 C 239.690624 184.842974 241.358472 185.394281 243.01329 185.986828 C 244.665937 186.577205 246.305553 187.210991 247.927796 187.881676 C 249.550039 188.554532 251.154909 189.266457 252.744577 190.01745 C 254.332073 190.768444 255.900024 191.558507 257.44843 192.385468 C 258.999007 193.2146 260.525697 194.078459 262.032841 194.981388 C 263.539985 195.886488 265.023241 196.824144 266.484779 197.80087 C 267.944147 198.777596 269.379625 199.786879 270.791216 200.835232 C 272.202806 201.881414 273.586164 202.960153 274.943463 204.075791 C 276.302933 205.189259 277.631999 206.337454 278.932834 207.516037 C 280.235841 208.69679 281.506272 209.90793 282.748471 211.149457 C 283.990671 212.390984 285.202467 213.662898 286.381688 214.9652 C 287.560908 216.26533 288.707554 217.595848 289.821625 218.954582 C 290.937867 220.311146 292.01719 221.695926 293.063939 223.106752 C 294.110687 224.517579 295.120517 225.954451 296.097772 227.413028 C 297.072855 228.873776 298.013192 230.358399 298.916609 231.864728 C 299.817856 233.371056 300.684355 234.899089 301.511764 236.448828 C 302.341345 237.998566 303.129664 239.565668 303.881064 241.154476 C 304.632464 242.741113 305.342603 244.347284 306.015823 245.97082 C 306.686871 247.592185 307.321001 249.230914 307.911697 250.884836 C 308.504565 252.538759 309.054 254.207875 309.564344 255.887843 C 310.074688 257.567812 310.541599 259.260803 310.969419 260.964647 C 311.395068 262.668491 311.781626 264.383188 312.12258 266.104396 C 312.465705 267.827774 312.767568 269.557664 313.023826 271.296236 C 313.282255 273.032638 313.497251 274.775551 313.668814 276.524975 C 313.840376 278.272229 313.970677 280.023825 314.057544 281.77759 C 314.14224 283.533526 314.185673 285.289462 314.185673 287.045398 Z M 314.185673 287.045398 " transform="matrix(1.798725,0,0,1.799699,32.796121,64.560955)"/></g><path style="fill:none;stroke-width:8;stroke-linecap:round;stroke-linejoin:round;stroke:#29a8df;stroke-opacity:1;stroke-miterlimit:4;" d="M 294.54068 287.045398 C 294.54068 288.4801 294.503761 289.914802 294.434267 291.347333 C 294.364774 292.779864 294.258361 294.212396 294.117202 295.640586 C 293.976043 297.068776 293.802309 298.492625 293.591657 299.912134 C 293.381004 301.331642 293.135604 302.744639 292.855458 304.151124 C 292.575312 305.55978 292.260418 306.959754 291.91295 308.351045 C 291.56331 309.742337 291.181095 311.124947 290.764133 312.498874 C 290.347171 313.872802 289.897633 315.233707 289.413349 316.58593 C 288.931237 317.935982 288.414378 319.275182 287.864943 320.601358 C 287.315509 321.927535 286.735671 323.238518 286.121086 324.536478 C 285.506502 325.832268 284.861513 327.115035 284.186122 328.380437 C 283.508558 329.64584 282.802763 330.893878 282.064393 332.124553 C 281.326023 333.355228 280.559421 334.568538 279.762415 335.762314 C 278.965409 336.95392 278.138 338.128161 277.284531 339.280698 C 276.42889 340.433234 275.547189 341.564066 274.635085 342.673192 C 273.725152 343.782319 272.789159 344.86757 271.824934 345.931116 C 270.860709 346.994662 269.872596 348.034332 268.856251 349.047957 C 267.842078 350.063751 266.804016 351.0535 265.739894 352.017203 C 264.675772 352.980906 263.589933 353.918563 262.480206 354.828003 C 261.372651 355.737444 260.241207 356.620838 259.088046 357.476016 C 257.934886 358.331193 256.76218 359.155984 255.569929 359.954729 C 254.375506 360.751303 253.16371 361.519661 251.932369 362.257631 C 250.7032 362.993431 249.454485 363.701015 248.188397 364.378212 C 246.92231 365.055408 245.64102 365.700047 244.344528 366.312129 C 243.045865 366.926381 241.734172 367.508076 240.409449 368.057213 C 239.082554 368.606349 237.744801 369.122929 236.394018 369.606951 C 235.043234 370.088802 233.679421 370.540267 232.306921 370.957003 C 230.934421 371.373739 229.551062 371.755748 228.159017 372.103028 C 226.766972 372.452479 225.368411 372.767202 223.958993 373.047196 C 222.551746 373.327191 221.137984 373.572458 219.719879 373.782997 C 218.299602 373.993535 216.874981 374.169346 215.448189 374.310429 C 214.019225 374.449341 212.58809 374.555695 211.154783 374.627322 C 209.721476 374.696778 208.288169 374.731506 206.85269 374.731506 C 205.417211 374.731506 203.983904 374.696778 202.550597 374.627322 C 201.11729 374.555695 199.686155 374.451511 198.257191 374.310429 C 196.830399 374.169346 195.405779 373.993535 193.987673 373.782997 C 192.567396 373.572458 191.153634 373.327191 189.746387 373.047196 C 188.33914 372.767202 186.938408 372.452479 185.546363 372.103028 C 184.154318 371.755748 182.773131 371.373739 181.398459 370.957003 C 180.025959 370.540267 178.664318 370.088802 177.311363 369.606951 C 175.960579 369.122929 174.622826 368.606349 173.295931 368.057213 C 171.971208 367.508076 170.659515 366.926381 169.363023 366.312129 C 168.06436 365.700047 166.783071 365.055408 165.516983 364.378212 C 164.253066 363.701015 163.004352 362.993431 161.773011 362.257631 C 160.54167 361.519661 159.329874 360.751303 158.137623 359.954729 C 156.9432 359.155984 155.770495 358.331193 154.617334 357.476016 C 153.464173 356.620838 152.334901 355.737444 151.225174 354.828003 C 150.115447 353.918563 149.029608 352.980906 147.965486 352.017203 C 146.903536 351.0535 145.863302 350.063751 144.849129 349.047957 C 143.834956 348.034332 142.844671 346.994662 141.880446 345.931116 C 140.918393 344.86757 139.980228 343.782319 139.070296 342.673192 C 138.160363 341.564066 137.27649 340.433234 136.423021 339.280698 C 135.56738 338.128161 134.742142 336.95392 133.942965 335.762314 C 133.14596 334.568538 132.379357 333.355228 131.640987 332.124553 C 130.902617 330.893878 130.196822 329.64584 129.519258 328.380437 C 128.843867 327.115035 128.198879 325.832268 127.584294 324.536478 C 126.971881 323.238518 126.389871 321.927535 125.840437 320.601358 C 125.291003 319.275182 124.776315 317.935982 124.292031 316.58593 C 123.807747 315.233707 123.35821 313.872802 122.941248 312.498874 C 122.524286 311.124947 122.14207 309.742337 121.794602 308.351045 C 121.444962 306.959754 121.130069 305.55978 120.849922 304.151124 C 120.571948 302.744639 120.326548 301.331642 120.115895 299.912134 C 119.905243 298.492625 119.729337 297.068776 119.588178 295.640586 C 119.447019 294.212396 119.342778 292.779864 119.271113 291.347333 C 119.201619 289.914802 119.166872 288.4801 119.166872 287.045398 C 119.166872 285.610697 119.201619 284.175995 119.271113 282.743463 C 119.342778 281.308762 119.447019 279.878401 119.588178 278.450211 C 119.729337 277.02202 119.905243 275.598171 120.115895 274.178663 C 120.326548 272.759155 120.571948 271.346158 120.849922 269.937502 C 121.130069 268.531017 121.444962 267.131043 121.794602 265.739751 C 122.14207 264.346289 122.524286 262.963679 122.941248 261.589752 C 123.35821 260.217994 123.807747 258.854919 124.292031 257.504867 C 124.776315 256.152644 125.291003 254.813445 125.840437 253.489438 C 126.389871 252.163262 126.971881 250.852279 127.584294 249.554318 C 128.198879 248.256358 128.843867 246.975762 129.519258 245.710359 C 130.196822 244.444957 130.902617 243.194748 131.640987 241.964073 C 132.379357 240.733398 133.14596 239.522258 133.942965 238.328482 C 134.742142 237.134706 135.56738 235.962635 136.423021 234.810099 C 137.27649 233.657562 138.160363 232.526731 139.070296 231.417604 C 139.980228 230.308478 140.918393 229.221056 141.880446 228.15751 C 142.844671 227.093964 143.834956 226.056464 144.849129 225.04067 C 145.863302 224.027045 146.903536 223.037296 147.965486 222.073593 C 149.029608 221.109891 150.115447 220.172234 151.225174 219.262793 C 152.334901 218.351183 153.464173 217.469959 154.617334 216.614781 C 155.770495 215.759603 156.9432 214.932642 158.137623 214.136068 C 159.329874 213.339494 160.54167 212.571136 161.773011 211.833165 C 163.004352 211.095195 164.253066 210.387611 165.516983 209.712585 C 166.783071 209.035388 168.06436 208.390749 169.363023 207.776497 C 170.659515 207.162245 171.971208 206.582721 173.295931 206.033584 C 174.622826 205.484447 175.960579 204.967868 177.311363 204.483846 C 178.664318 203.999824 180.025959 203.55053 181.398459 203.133793 C 182.773131 202.717057 184.154318 202.335049 185.546363 201.985598 C 186.938408 201.636147 188.33914 201.323595 189.746387 201.0436 C 191.153634 200.763605 192.567396 200.518339 193.987673 200.3078 C 195.405779 200.097261 196.830399 199.921451 198.257191 199.780368 C 199.686155 199.639285 201.11729 199.535101 202.550597 199.463475 C 203.983904 199.394019 205.417211 199.35712 206.85269 199.35712 C 208.288169 199.35712 209.721476 199.394019 211.154783 199.463475 C 212.58809 199.535101 214.019225 199.639285 215.448189 199.780368 C 216.874981 199.921451 218.299602 200.097261 219.719879 200.3078 C 221.137984 200.518339 222.551746 200.763605 223.958993 201.0436 C 225.368411 201.323595 226.766972 201.636147 228.159017 201.985598 C 229.551062 202.335049 230.934421 202.717057 232.306921 203.133793 C 233.679421 203.55053 235.043234 203.999824 236.394018 204.483846 C 237.744801 204.967868 239.082554 205.484447 240.409449 206.033584 C 241.734172 206.582721 243.045865 207.162245 244.344528 207.776497 C 245.64102 208.390749 246.92231 209.035388 248.188397 209.712585 C 249.454485 210.387611 250.7032 211.095195 251.932369 211.833165 C 253.16371 212.571136 254.375506 213.339494 255.569929 214.136068 C 256.76218 214.932642 257.934886 215.759603 259.088046 216.614781 C 260.241207 217.469959 261.372651 218.351183 262.480206 219.262793 C 263.589933 220.172234 264.675772 221.109891 265.739894 222.073593 C 266.804016 223.037296 267.842078 224.027045 268.856251 225.04067 C 269.872596 226.056464 270.860709 227.093964 271.824934 228.15751 C 272.789159 229.221056 273.725152 230.308478 274.635085 231.417604 C 275.547189 232.526731 276.42889 233.657562 277.284531 234.810099 C 278.138 235.962635 278.965409 237.134706 279.762415 238.328482 C 280.559421 239.522258 281.326023 240.733398 282.064393 241.964073 C 282.802763 243.194748 283.508558 244.444957 284.186122 245.710359 C 284.861513 246.975762 285.506502 248.256358 286.121086 249.554318 C 286.735671 250.852279 287.315509 252.163262 287.864943 253.489438 C 288.414378 254.813445 288.931237 256.152644 289.413349 257.504867 C 289.897633 258.854919 290.347171 260.217994 290.764133 261.589752 C 291.181095 262.963679 291.56331 264.346289 291.91295 265.739751 C 292.260418 267.131043 292.575312 268.531017 292.855458 269.937502 C 293.135604 271.346158 293.381004 272.759155 293.591657 274.178663 C 293.802309 275.598171 293.976043 277.02202 294.117202 278.450211 C 294.258361 279.878401 294.364774 281.308762 294.434267 282.743463 C 294.503761 284.175995 294.54068 285.610697 294.54068 287.045398 Z M 294.54068 287.045398 " transform="matrix(1.798725,0,0,1.799699,32.796121,64.560955)"/><path style=" stroke:none;fill-rule:nonzero;fill:#333652;fill-opacity:1;" d="M 404.867188 600.050781 C 404.25 600.050781 403.632812 600.023438 403.015625 599.960938 C 402.402344 599.902344 401.789062 599.808594 401.183594 599.6875 C 400.578125 599.570312 399.976562 599.417969 399.386719 599.238281 C 398.792969 599.058594 398.210938 598.851562 397.640625 598.613281 C 397.070312 598.378906 396.511719 598.113281 395.964844 597.820312 C 395.417969 597.53125 394.890625 597.210938 394.375 596.867188 C 393.859375 596.523438 393.363281 596.15625 392.886719 595.761719 C 392.40625 595.371094 391.949219 594.957031 391.511719 594.515625 C 391.074219 594.078125 390.660156 593.621094 390.269531 593.144531 C 389.875 592.664062 389.507812 592.167969 389.164062 591.652344 C 388.820312 591.140625 388.503906 590.609375 388.210938 590.0625 C 387.917969 589.515625 387.65625 588.957031 387.417969 588.386719 C 387.183594 587.816406 386.972656 587.234375 386.792969 586.640625 C 386.613281 586.046875 386.464844 585.449219 386.34375 584.84375 C 386.222656 584.234375 386.132812 583.625 386.070312 583.007812 C 386.011719 582.390625 385.980469 581.773438 385.980469 581.15625 C 385.980469 581.15625 394.433594 404.449219 404.867188 404.449219 C 415.300781 404.449219 423.753906 562.257812 423.753906 562.257812 C 423.753906 562.257812 581.480469 570.71875 581.480469 581.15625 C 581.480469 591.59375 404.867188 600.050781 404.867188 600.050781 Z M 404.867188 600.050781 "/></g></svg>