<svg xmlns="http://www.w3.org/2000/svg" xmlns:xlink="http://www.w3.org/1999/xlink" width="1080" zoomAndPan="magnify" viewBox="0 0 810 809.999993" height="1080" preserveAspectRatio="xMidYMid meet" version="1.2"><defs><clipPath id="c34ef0e52c"><path d="M 253 237 L 589.375 237 L 589.375 572.957031 L 253 572.957031 Z M 253 237 "/></clipPath></defs><g id="2f1cc93e2e"><path style=" stroke:none;fill-rule:nonzero;fill:#db1b32;fill-opacity:1;" d="M 520.238281 458.972656 L 506.609375 357.6875 C 503.820312 336.976562 486.914062 321.355469 467.28125 321.355469 L 376.25 321.355469 C 356.617188 321.355469 339.714844 336.976562 336.925781 357.6875 L 323.292969 458.972656 C 323.230469 459.441406 323.261719 459.910156 323.382812 460.367188 C 323.503906 460.828125 323.707031 461.246094 323.996094 461.625 C 324.285156 462.003906 324.636719 462.308594 325.046875 462.550781 C 325.457031 462.789062 325.898438 462.9375 326.371094 463.003906 C 326.839844 463.066406 327.308594 463.035156 327.765625 462.914062 C 328.226562 462.792969 328.644531 462.589844 329.023438 462.300781 C 329.402344 462.011719 329.710938 461.664062 329.949219 461.25 C 330.1875 460.839844 330.339844 460.398438 330.402344 459.929688 L 344.03125 358.644531 C 346.34375 341.472656 360.191406 328.523438 376.25 328.523438 L 467.28125 328.523438 C 483.339844 328.523438 497.191406 341.472656 499.503906 358.644531 L 500.015625 362.445312 C 498.957031 361.125 497.828125 359.867188 496.632812 358.671875 C 495.433594 357.476562 494.171875 356.351562 492.847656 355.296875 C 491.523438 354.242188 490.144531 353.261719 488.710938 352.363281 C 487.277344 351.460938 485.796875 350.644531 484.273438 349.910156 C 482.75 349.175781 481.1875 348.527344 479.589844 347.964844 C 477.992188 347.402344 476.371094 346.933594 474.71875 346.554688 C 473.070312 346.175781 471.402344 345.886719 469.722656 345.695312 C 468.039062 345.5 466.351562 345.402344 464.660156 345.398438 L 389.835938 345.398438 C 388.960938 345.398438 388.085938 345.4375 387.214844 345.519531 C 386.339844 345.597656 385.472656 345.71875 384.613281 345.878906 C 383.75 346.035156 382.898438 346.230469 382.054688 346.46875 C 381.210938 346.703125 380.378906 346.976562 379.558594 347.285156 C 378.742188 347.597656 377.9375 347.945312 377.148438 348.328125 C 376.359375 348.710938 375.589844 349.128906 374.839844 349.578125 C 374.089844 350.03125 373.363281 350.515625 372.65625 351.035156 C 371.949219 351.554688 371.269531 352.101562 370.613281 352.683594 C 369.957031 353.261719 369.328125 353.871094 368.726562 354.507812 C 368.121094 355.144531 367.550781 355.804688 367.007812 356.492188 C 366.46875 357.183594 365.957031 357.894531 365.480469 358.628906 C 365.003906 359.363281 364.558594 360.117188 364.148438 360.890625 C 363.738281 361.664062 363.367188 362.457031 363.027344 363.261719 C 362.691406 364.070312 362.390625 364.894531 362.125 365.726562 C 361.863281 366.5625 361.636719 367.410156 361.449219 368.265625 C 361.261719 369.121094 361.113281 369.980469 361.003906 370.851562 L 350.921875 451.730469 C 350.835938 452.4375 350.824219 453.148438 350.886719 453.859375 C 350.949219 454.570312 351.085938 455.265625 351.296875 455.945312 C 351.503906 456.625 351.785156 457.277344 352.136719 457.898438 C 352.484375 458.519531 352.894531 459.097656 353.367188 459.632812 C 353.839844 460.167969 354.363281 460.648438 354.9375 461.070312 C 355.511719 461.492188 356.121094 461.851562 356.773438 462.144531 C 357.421875 462.4375 358.097656 462.660156 358.792969 462.808594 C 359.492188 462.960938 360.195312 463.035156 360.910156 463.035156 L 516.6875 463.035156 C 516.832031 463.035156 516.976562 463.023438 517.121094 463.003906 C 517.136719 463.003906 517.148438 463.003906 517.164062 463.003906 C 517.226562 462.996094 517.285156 462.980469 517.347656 462.96875 C 517.390625 462.960938 517.433594 462.953125 517.476562 462.945312 C 517.566406 462.925781 517.65625 462.898438 517.742188 462.871094 C 517.773438 462.863281 517.800781 462.855469 517.828125 462.847656 C 517.941406 462.808594 518.050781 462.765625 518.15625 462.71875 L 518.171875 462.714844 C 518.398438 462.609375 518.617188 462.480469 518.820312 462.332031 L 518.835938 462.316406 C 518.925781 462.25 519.015625 462.175781 519.101562 462.097656 C 519.125 462.078125 519.144531 462.054688 519.167969 462.03125 C 519.234375 461.96875 519.296875 461.90625 519.359375 461.835938 C 519.367188 461.828125 519.375 461.820312 519.386719 461.808594 C 519.402344 461.789062 519.417969 461.765625 519.433594 461.746094 C 519.488281 461.683594 519.539062 461.617188 519.585938 461.550781 C 519.613281 461.515625 519.640625 461.476562 519.664062 461.4375 C 519.707031 461.375 519.746094 461.3125 519.785156 461.246094 C 519.808594 461.207031 519.832031 461.164062 519.855469 461.121094 C 519.890625 461.054688 519.921875 460.984375 519.953125 460.917969 C 519.972656 460.875 519.992188 460.835938 520.007812 460.792969 C 520.039062 460.71875 520.066406 460.640625 520.089844 460.566406 C 520.101562 460.527344 520.117188 460.488281 520.128906 460.449219 C 520.152344 460.367188 520.171875 460.28125 520.191406 460.191406 C 520.195312 460.160156 520.207031 460.128906 520.210938 460.09375 C 520.230469 460 520.242188 459.90625 520.25 459.808594 C 520.253906 459.78125 520.257812 459.753906 520.261719 459.726562 C 520.269531 459.625 520.269531 459.523438 520.269531 459.421875 C 520.269531 459.398438 520.269531 459.375 520.269531 459.351562 C 520.265625 459.222656 520.257812 459.097656 520.238281 458.972656 Z M 469.9375 372.433594 C 469.9375 371.839844 469.996094 371.25 470.113281 370.667969 C 470.226562 370.085938 470.398438 369.519531 470.628906 368.972656 C 470.855469 368.421875 471.132812 367.902344 471.464844 367.40625 C 471.792969 366.914062 472.167969 366.457031 472.589844 366.035156 C 473.007812 365.617188 473.464844 365.242188 473.960938 364.910156 C 474.453125 364.582031 474.976562 364.300781 475.523438 364.074219 C 476.074219 363.847656 476.640625 363.675781 477.222656 363.558594 C 477.804688 363.445312 478.394531 363.386719 478.988281 363.386719 C 479.582031 363.386719 480.171875 363.445312 480.753906 363.558594 C 481.335938 363.675781 481.902344 363.847656 482.453125 364.074219 C 483 364.300781 483.523438 364.582031 484.015625 364.910156 C 484.511719 365.242188 484.96875 365.617188 485.386719 366.035156 C 485.808594 366.457031 486.183594 366.914062 486.511719 367.40625 C 486.84375 367.902344 487.121094 368.421875 487.347656 368.972656 C 487.578125 369.519531 487.75 370.085938 487.863281 370.667969 C 487.980469 371.25 488.039062 371.839844 488.039062 372.433594 C 488.039062 373.027344 487.980469 373.613281 487.863281 374.199219 C 487.75 374.78125 487.578125 375.34375 487.347656 375.894531 C 487.121094 376.441406 486.84375 376.964844 486.511719 377.457031 C 486.183594 377.953125 485.808594 378.410156 485.386719 378.828125 C 484.96875 379.25 484.511719 379.625 484.015625 379.953125 C 483.523438 380.285156 483 380.5625 482.453125 380.789062 C 481.902344 381.015625 481.335938 381.1875 480.753906 381.304688 C 480.171875 381.421875 479.582031 381.480469 478.988281 381.480469 C 478.394531 381.480469 477.804688 381.421875 477.222656 381.304688 C 476.640625 381.1875 476.074219 381.015625 475.523438 380.789062 C 474.976562 380.5625 474.453125 380.285156 473.960938 379.953125 C 473.464844 379.625 473.007812 379.25 472.589844 378.828125 C 472.167969 378.410156 471.792969 377.953125 471.464844 377.457031 C 471.132812 376.964844 470.855469 376.441406 470.628906 375.894531 C 470.398438 375.34375 470.226562 374.78125 470.113281 374.199219 C 469.996094 373.613281 469.9375 373.027344 469.9375 372.433594 Z M 489.089844 446.632812 C 488.628906 446.683594 488.167969 446.6875 487.707031 446.644531 C 487.246094 446.601562 486.792969 446.515625 486.351562 446.386719 C 485.90625 446.257812 485.480469 446.085938 485.070312 445.871094 C 484.660156 445.65625 484.273438 445.402344 483.914062 445.113281 C 483.554688 444.824219 483.226562 444.5 482.929688 444.144531 C 482.632812 443.789062 482.375 443.410156 482.152344 443.003906 C 481.929688 442.597656 481.75 442.175781 481.613281 441.734375 C 481.476562 441.292969 481.382812 440.84375 481.332031 440.382812 L 476.992188 399.988281 C 476.945312 399.53125 476.941406 399.070312 476.980469 398.609375 C 477.023438 398.148438 477.109375 397.695312 477.238281 397.253906 C 477.371094 396.808594 477.542969 396.382812 477.757812 395.972656 C 477.96875 395.5625 478.222656 395.179688 478.511719 394.820312 C 478.804688 394.457031 479.125 394.128906 479.480469 393.832031 C 479.835938 393.539062 480.21875 393.277344 480.621094 393.058594 C 481.027344 392.835938 481.453125 392.65625 481.894531 392.515625 C 482.335938 392.378906 482.785156 392.285156 483.246094 392.234375 C 483.707031 392.1875 484.167969 392.183594 484.628906 392.222656 C 485.089844 392.265625 485.539062 392.351562 485.984375 392.480469 C 486.429688 392.613281 486.855469 392.785156 487.265625 393 C 487.675781 393.214844 488.058594 393.464844 488.417969 393.753906 C 488.78125 394.046875 489.109375 394.367188 489.40625 394.722656 C 489.703125 395.078125 489.960938 395.457031 490.183594 395.863281 C 490.402344 396.269531 490.582031 396.695312 490.722656 397.132812 C 490.859375 397.574219 490.953125 398.027344 491.003906 398.484375 L 495.339844 438.878906 C 495.390625 439.339844 495.394531 439.796875 495.355469 440.257812 C 495.3125 440.71875 495.226562 441.171875 495.097656 441.617188 C 494.964844 442.058594 494.792969 442.484375 494.578125 442.894531 C 494.363281 443.304688 494.113281 443.691406 493.820312 444.050781 C 493.53125 444.410156 493.207031 444.738281 492.855469 445.035156 C 492.5 445.332031 492.117188 445.589844 491.710938 445.8125 C 491.304688 446.035156 490.882812 446.214844 490.441406 446.351562 C 490 446.488281 489.546875 446.582031 489.089844 446.632812 Z M 489.089844 446.632812 "/><g clip-rule="nonzero" clip-path="url(#c34ef0e52c)"><path style=" stroke:none;fill-rule:nonzero;fill:#000000;fill-opacity:1;" d="M 530.585938 484.601562 C 530.425781 483.792969 530.199219 483.003906 529.90625 482.234375 C 529.609375 481.464844 529.25 480.726562 528.828125 480.019531 C 528.402344 479.3125 527.921875 478.648438 527.382812 478.027344 C 526.84375 477.402344 526.257812 476.832031 525.617188 476.308594 C 524.980469 475.789062 524.300781 475.324219 523.582031 474.921875 C 522.863281 474.519531 522.117188 474.179688 521.339844 473.90625 C 520.5625 473.632812 519.765625 473.429688 518.953125 473.292969 C 518.140625 473.15625 517.324219 473.089844 516.5 473.097656 L 327.035156 473.097656 C 326.210938 473.089844 325.394531 473.15625 324.582031 473.289062 C 323.773438 473.425781 322.980469 473.628906 322.203125 473.902344 C 321.425781 474.171875 320.679688 474.511719 319.964844 474.914062 C 319.246094 475.3125 318.566406 475.773438 317.929688 476.292969 C 317.292969 476.8125 316.703125 477.382812 316.164062 478.003906 C 315.628906 478.625 315.144531 479.289062 314.722656 479.992188 C 314.296875 480.695312 313.9375 481.433594 313.640625 482.199219 C 313.34375 482.964844 313.117188 483.753906 312.957031 484.558594 L 298.628906 556.324219 C 298.441406 557.324219 298.367188 558.332031 298.402344 559.347656 C 298.441406 560.367188 298.585938 561.367188 298.84375 562.351562 C 299.101562 563.335938 299.464844 564.28125 299.929688 565.1875 C 300.398438 566.09375 300.957031 566.933594 301.609375 567.714844 C 302.289062 568.53125 303.046875 569.261719 303.886719 569.90625 C 304.722656 570.550781 305.625 571.097656 306.582031 571.546875 C 307.542969 571.992188 308.539062 572.332031 309.574219 572.558594 C 310.609375 572.785156 311.65625 572.894531 312.714844 572.890625 L 530.816406 572.890625 C 531.878906 572.894531 532.925781 572.785156 533.960938 572.558594 C 534.992188 572.332031 535.992188 571.992188 536.953125 571.546875 C 537.910156 571.097656 538.8125 570.550781 539.648438 569.90625 C 540.488281 569.257812 541.246094 568.527344 541.925781 567.714844 C 542.578125 566.929688 543.140625 566.085938 543.609375 565.175781 C 544.074219 564.269531 544.4375 563.320312 544.691406 562.332031 C 544.949219 561.34375 545.09375 560.335938 545.128906 559.316406 C 545.164062 558.296875 545.085938 557.285156 544.894531 556.28125 Z M 536.410156 563.136719 C 535.71875 563.964844 534.882812 564.601562 533.902344 565.054688 C 532.925781 565.507812 531.894531 565.730469 530.816406 565.722656 L 312.714844 565.722656 C 311.636719 565.730469 310.609375 565.507812 309.632812 565.054688 C 308.652344 564.601562 307.820312 563.964844 307.128906 563.136719 C 306.484375 562.382812 306.035156 561.53125 305.78125 560.574219 C 305.527344 559.617188 305.488281 558.65625 305.671875 557.683594 L 320 485.917969 C 320.082031 485.519531 320.195312 485.128906 320.34375 484.746094 C 320.496094 484.367188 320.675781 484.003906 320.890625 483.652344 C 321.101562 483.304688 321.34375 482.976562 321.613281 482.667969 C 321.882812 482.363281 322.179688 482.082031 322.496094 481.824219 C 322.816406 481.566406 323.152344 481.339844 323.511719 481.144531 C 323.871094 480.945312 324.242188 480.78125 324.628906 480.648438 C 325.015625 480.515625 325.410156 480.417969 325.816406 480.351562 C 326.21875 480.289062 326.625 480.261719 327.035156 480.265625 L 516.5 480.265625 C 516.910156 480.261719 517.316406 480.289062 517.722656 480.355469 C 518.128906 480.421875 518.527344 480.519531 518.914062 480.652344 C 519.300781 480.789062 519.675781 480.953125 520.035156 481.152344 C 520.394531 481.351562 520.734375 481.582031 521.050781 481.839844 C 521.371094 482.097656 521.667969 482.382812 521.9375 482.691406 C 522.207031 483 522.449219 483.332031 522.660156 483.683594 C 522.871094 484.03125 523.050781 484.398438 523.203125 484.78125 C 523.351562 485.164062 523.464844 485.558594 523.542969 485.960938 L 537.855469 557.640625 C 538.042969 558.617188 538.007812 559.589844 537.757812 560.554688 C 537.503906 561.515625 537.054688 562.378906 536.410156 563.136719 Z M 301.246094 386.339844 L 257.425781 374.316406 C 257.046875 374.214844 256.679688 374.074219 256.332031 373.898438 C 255.980469 373.722656 255.648438 373.515625 255.339844 373.273438 C 255.027344 373.035156 254.746094 372.765625 254.488281 372.46875 C 254.230469 372.171875 254.003906 371.855469 253.8125 371.515625 C 253.617188 371.171875 253.457031 370.816406 253.332031 370.445312 C 253.210938 370.070312 253.121094 369.691406 253.074219 369.300781 C 253.023438 368.914062 253.015625 368.523438 253.042969 368.132812 C 253.070312 367.738281 253.136719 367.355469 253.242188 366.976562 C 253.34375 366.597656 253.484375 366.234375 253.660156 365.882812 C 253.835938 365.53125 254.042969 365.203125 254.285156 364.890625 C 254.527344 364.582031 254.792969 364.296875 255.089844 364.042969 C 255.386719 363.785156 255.707031 363.558594 256.046875 363.367188 C 256.390625 363.171875 256.746094 363.011719 257.117188 362.890625 C 257.492188 362.765625 257.871094 362.679688 258.261719 362.628906 C 258.652344 362.582031 259.042969 362.570312 259.433594 362.601562 C 259.824219 362.628906 260.210938 362.695312 260.585938 362.796875 L 304.410156 374.820312 C 304.789062 374.921875 305.152344 375.0625 305.507812 375.234375 C 305.859375 375.410156 306.191406 375.617188 306.5 375.859375 C 306.8125 376.097656 307.097656 376.367188 307.355469 376.664062 C 307.613281 376.960938 307.839844 377.28125 308.035156 377.621094 C 308.230469 377.960938 308.390625 378.320312 308.515625 378.691406 C 308.640625 379.066406 308.726562 379.445312 308.777344 379.835938 C 308.824219 380.226562 308.835938 380.617188 308.808594 381.007812 C 308.78125 381.402344 308.714844 381.785156 308.609375 382.167969 C 308.503906 382.546875 308.367188 382.910156 308.1875 383.261719 C 308.011719 383.613281 307.804688 383.945312 307.5625 384.253906 C 307.320312 384.5625 307.050781 384.847656 306.753906 385.105469 C 306.457031 385.363281 306.136719 385.585938 305.792969 385.78125 C 305.453125 385.976562 305.09375 386.132812 304.722656 386.257812 C 304.347656 386.378906 303.964844 386.464844 303.574219 386.511719 C 303.183594 386.5625 302.792969 386.570312 302.402344 386.542969 C 302.011719 386.511719 301.625 386.445312 301.246094 386.339844 Z M 584.644531 374.316406 L 540.824219 386.339844 C 540.445312 386.445312 540.0625 386.511719 539.667969 386.539062 C 539.277344 386.570312 538.886719 386.558594 538.496094 386.511719 C 538.105469 386.464844 537.722656 386.378906 537.351562 386.253906 C 536.976562 386.132812 536.621094 385.972656 536.277344 385.78125 C 535.9375 385.585938 535.617188 385.359375 535.320312 385.101562 C 535.023438 384.847656 534.753906 384.5625 534.511719 384.253906 C 534.269531 383.941406 534.0625 383.613281 533.882812 383.261719 C 533.707031 382.910156 533.566406 382.542969 533.464844 382.164062 C 533.359375 381.785156 533.292969 381.402344 533.265625 381.007812 C 533.238281 380.617188 533.25 380.226562 533.296875 379.835938 C 533.347656 379.449219 533.433594 379.066406 533.558594 378.695312 C 533.683594 378.320312 533.84375 377.964844 534.035156 377.621094 C 534.230469 377.28125 534.457031 376.960938 534.714844 376.664062 C 534.972656 376.371094 535.257812 376.101562 535.570312 375.859375 C 535.878906 375.621094 536.210938 375.410156 536.5625 375.238281 C 536.914062 375.0625 537.28125 374.921875 537.660156 374.820312 L 581.480469 362.796875 C 581.859375 362.691406 582.242188 362.625 582.636719 362.597656 C 583.027344 362.566406 583.417969 362.578125 583.808594 362.625 C 584.199219 362.675781 584.578125 362.757812 584.953125 362.882812 C 585.328125 363.007812 585.683594 363.164062 586.027344 363.359375 C 586.367188 363.550781 586.6875 363.777344 586.984375 364.035156 C 587.28125 364.292969 587.550781 364.574219 587.792969 364.886719 C 588.035156 365.195312 588.242188 365.527344 588.417969 365.878906 C 588.59375 366.226562 588.734375 366.59375 588.839844 366.972656 C 588.941406 367.351562 589.007812 367.734375 589.039062 368.128906 C 589.066406 368.519531 589.054688 368.910156 589.003906 369.300781 C 588.957031 369.691406 588.871094 370.070312 588.746094 370.445312 C 588.621094 370.816406 588.460938 371.171875 588.265625 371.515625 C 588.070312 371.855469 587.84375 372.175781 587.585938 372.472656 C 587.328125 372.769531 587.046875 373.035156 586.734375 373.277344 C 586.425781 373.519531 586.09375 373.726562 585.742188 373.902344 C 585.390625 374.074219 585.023438 374.214844 584.644531 374.316406 Z M 516.898438 313.875 C 516.621094 313.597656 516.375 313.296875 516.15625 312.96875 C 515.9375 312.644531 515.753906 312.300781 515.601562 311.9375 C 515.453125 311.574219 515.339844 311.203125 515.261719 310.816406 C 515.1875 310.433594 515.148438 310.042969 515.148438 309.652344 C 515.148438 309.257812 515.1875 308.871094 515.261719 308.484375 C 515.339844 308.101562 515.453125 307.726562 515.601562 307.367188 C 515.753906 307.003906 515.9375 306.660156 516.15625 306.332031 C 516.375 306.007812 516.621094 305.707031 516.898438 305.429688 L 549.03125 273.308594 C 549.308594 273.03125 549.609375 272.785156 549.9375 272.566406 C 550.261719 272.347656 550.605469 272.164062 550.96875 272.015625 C 551.332031 271.863281 551.707031 271.75 552.089844 271.675781 C 552.476562 271.597656 552.863281 271.558594 553.257812 271.558594 C 553.648438 271.558594 554.035156 271.597656 554.421875 271.675781 C 554.804688 271.75 555.179688 271.863281 555.542969 272.015625 C 555.90625 272.164062 556.25 272.347656 556.574219 272.566406 C 556.902344 272.785156 557.203125 273.03125 557.480469 273.308594 C 557.757812 273.585938 558.007812 273.886719 558.222656 274.214844 C 558.441406 274.539062 558.625 274.886719 558.777344 275.246094 C 558.925781 275.609375 559.039062 275.984375 559.117188 276.367188 C 559.191406 276.753906 559.230469 277.140625 559.230469 277.53125 C 559.230469 277.925781 559.191406 278.3125 559.117188 278.699219 C 559.039062 279.082031 558.925781 279.457031 558.777344 279.820312 C 558.625 280.179688 558.441406 280.523438 558.222656 280.851562 C 558.007812 281.175781 557.757812 281.480469 557.480469 281.757812 L 525.347656 313.875 C 525.070312 314.152344 524.769531 314.402344 524.445312 314.617188 C 524.117188 314.835938 523.773438 315.019531 523.410156 315.171875 C 523.046875 315.320312 522.675781 315.433594 522.289062 315.511719 C 521.90625 315.585938 521.515625 315.625 521.125 315.625 C 520.730469 315.625 520.34375 315.585938 519.957031 315.511719 C 519.574219 315.433594 519.199219 315.320312 518.835938 315.171875 C 518.476562 315.019531 518.128906 314.835938 517.804688 314.617188 C 517.476562 314.402344 517.175781 314.152344 516.898438 313.875 Z M 289.511719 281.757812 C 289.234375 281.480469 288.988281 281.175781 288.769531 280.851562 C 288.550781 280.523438 288.367188 280.179688 288.21875 279.820312 C 288.066406 279.457031 287.953125 279.082031 287.878906 278.699219 C 287.800781 278.3125 287.761719 277.925781 287.761719 277.53125 C 287.761719 277.140625 287.800781 276.753906 287.875 276.367188 C 287.953125 275.984375 288.066406 275.609375 288.21875 275.246094 C 288.367188 274.886719 288.550781 274.539062 288.769531 274.214844 C 288.988281 273.890625 289.234375 273.585938 289.511719 273.308594 C 289.789062 273.03125 290.089844 272.785156 290.417969 272.566406 C 290.742188 272.347656 291.089844 272.164062 291.449219 272.015625 C 291.8125 271.863281 292.1875 271.75 292.570312 271.675781 C 292.957031 271.597656 293.34375 271.558594 293.738281 271.558594 C 294.128906 271.558594 294.519531 271.597656 294.902344 271.675781 C 295.289062 271.75 295.660156 271.863281 296.023438 272.015625 C 296.386719 272.164062 296.730469 272.347656 297.058594 272.566406 C 297.382812 272.785156 297.683594 273.03125 297.960938 273.308594 L 330.09375 305.429688 C 330.371094 305.707031 330.621094 306.007812 330.835938 306.332031 C 331.054688 306.660156 331.238281 307.003906 331.390625 307.367188 C 331.539062 307.726562 331.652344 308.101562 331.730469 308.488281 C 331.804688 308.871094 331.84375 309.257812 331.84375 309.652344 C 331.84375 310.042969 331.804688 310.433594 331.730469 310.816406 C 331.652344 311.203125 331.539062 311.574219 331.390625 311.9375 C 331.238281 312.300781 331.054688 312.644531 330.835938 312.96875 C 330.621094 313.296875 330.371094 313.597656 330.09375 313.875 C 329.816406 314.152344 329.515625 314.398438 329.1875 314.617188 C 328.863281 314.835938 328.519531 315.019531 328.15625 315.171875 C 327.792969 315.320312 327.421875 315.433594 327.035156 315.511719 C 326.652344 315.585938 326.261719 315.625 325.871094 315.625 C 325.476562 315.625 325.089844 315.585938 324.703125 315.511719 C 324.320312 315.433594 323.945312 315.320312 323.582031 315.171875 C 323.21875 315.019531 322.875 314.835938 322.550781 314.617188 C 322.222656 314.398438 321.921875 314.152344 321.644531 313.875 Z M 417.519531 288.417969 L 417.519531 242.996094 C 417.519531 242.601562 417.558594 242.214844 417.632812 241.828125 C 417.710938 241.445312 417.824219 241.070312 417.972656 240.707031 C 418.125 240.347656 418.308594 240.003906 418.527344 239.675781 C 418.746094 239.351562 418.992188 239.046875 419.269531 238.769531 C 419.546875 238.492188 419.847656 238.246094 420.175781 238.027344 C 420.5 237.808594 420.847656 237.625 421.207031 237.476562 C 421.570312 237.324219 421.945312 237.210938 422.328125 237.136719 C 422.714844 237.058594 423.101562 237.019531 423.496094 237.019531 C 423.886719 237.019531 424.277344 237.058594 424.660156 237.136719 C 425.046875 237.210938 425.417969 237.324219 425.78125 237.476562 C 426.144531 237.625 426.488281 237.808594 426.816406 238.027344 C 427.140625 238.246094 427.445312 238.492188 427.722656 238.769531 C 428 239.046875 428.246094 239.351562 428.464844 239.675781 C 428.683594 240.003906 428.867188 240.347656 429.015625 240.707031 C 429.167969 241.070312 429.28125 241.445312 429.355469 241.828125 C 429.433594 242.214844 429.472656 242.601562 429.472656 242.996094 L 429.472656 288.417969 C 429.472656 288.808594 429.433594 289.199219 429.355469 289.582031 C 429.28125 289.96875 429.167969 290.339844 429.015625 290.703125 C 428.867188 291.066406 428.683594 291.410156 428.464844 291.738281 C 428.246094 292.0625 428 292.363281 427.722656 292.640625 C 427.445312 292.917969 427.140625 293.167969 426.816406 293.382812 C 426.488281 293.601562 426.144531 293.785156 425.78125 293.9375 C 425.417969 294.085938 425.046875 294.199219 424.660156 294.277344 C 424.277344 294.351562 423.886719 294.390625 423.496094 294.390625 C 423.101562 294.390625 422.714844 294.351562 422.328125 294.277344 C 421.945312 294.199219 421.570312 294.085938 421.207031 293.9375 C 420.847656 293.785156 420.5 293.601562 420.175781 293.382812 C 419.847656 293.167969 419.546875 292.917969 419.269531 292.640625 C 418.992188 292.363281 418.746094 292.0625 418.527344 291.738281 C 418.308594 291.410156 418.125 291.066406 417.972656 290.703125 C 417.824219 290.339844 417.710938 289.96875 417.632812 289.582031 C 417.558594 289.199219 417.519531 288.808594 417.519531 288.417969 Z M 417.519531 288.417969 "/></g></g></svg>