<svg xmlns="http://www.w3.org/2000/svg" xmlns:xlink="http://www.w3.org/1999/xlink" width="1080" zoomAndPan="magnify" viewBox="0 0 810 809.999993" height="1080" preserveAspectRatio="xMidYMid meet" version="1.2"><defs><clipPath id="8f6a5bebb8"><path d="M 190.449219 174.3125 L 610 174.3125 L 610 594 L 190.449219 594 Z M 190.449219 174.3125 "/></clipPath><clipPath id="bdae1d1f53"><path d="M 479.007812 553 L 561.730469 553 L 561.730469 635.5625 L 479.007812 635.5625 Z M 479.007812 553 "/></clipPath><clipPath id="8274123572"><path d="M 214.546875 205.585938 L 640.742188 205.585938 L 640.742188 632 L 214.546875 632 Z M 214.546875 205.585938 "/></clipPath></defs><g id="ed59382483"><g clip-rule="nonzero" clip-path="url(#8f6a5bebb8)"><path style=" stroke:none;fill-rule:nonzero;fill:#597dc5;fill-opacity:1;" d="M 609.289062 383.742188 C 609.289062 499.398438 515.527344 593.160156 399.867188 593.160156 C 284.207031 593.160156 190.449219 499.398438 190.449219 383.742188 C 190.449219 268.082031 284.207031 174.320312 399.867188 174.320312 C 515.527344 174.320312 609.289062 268.082031 609.289062 383.742188 "/></g><path style=" stroke:none;fill-rule:nonzero;fill:#60b7fe;fill-opacity:1;" d="M 630.257812 404.710938 C 630.257812 520.371094 536.5 614.132812 420.839844 614.132812 C 305.179688 614.132812 211.417969 520.371094 211.417969 404.710938 C 211.417969 289.050781 305.179688 195.292969 420.839844 195.292969 C 536.5 195.292969 630.257812 289.050781 630.257812 404.710938 "/><g clip-rule="nonzero" clip-path="url(#bdae1d1f53)"><path style=" stroke:none;fill-rule:nonzero;fill:#597dc5;fill-opacity:1;" d="M 561.730469 594.429688 C 561.730469 617.160156 543.304688 635.589844 520.574219 635.589844 C 497.839844 635.589844 479.414062 617.160156 479.414062 594.429688 C 479.414062 571.699219 497.839844 553.269531 520.574219 553.269531 C 543.304688 553.269531 561.730469 571.699219 561.730469 594.429688 "/></g><path style=" stroke:none;fill-rule:nonzero;fill:#ffffff;fill-opacity:1;" d="M 314.238281 381.78125 C 314.238281 393.121094 304.820312 399.785156 288.664062 399.785156 C 278.898438 399.785156 272.28125 397.675781 268.6875 396.230469 L 268.6875 376.667969 C 273.847656 379.558594 282.824219 382.339844 288.4375 382.339844 C 290.902344 382.339844 293.371094 382.117188 293.371094 380.671875 C 293.371094 379.339844 290.675781 378.78125 286.300781 377.667969 C 275.308594 375.003906 267.453125 370.554688 267.453125 359.109375 C 267.453125 347.664062 275.644531 340.882812 290.117188 340.882812 C 300.101562 340.882812 307.625 343.214844 310.539062 344.328125 L 310.539062 363.335938 C 305.941406 361 297.523438 358.554688 292.136719 358.554688 C 290.792969 358.554688 288.320312 358.664062 288.320312 360.21875 C 288.320312 361.441406 290.007812 362.335938 294.382812 363.335938 C 307.960938 366.554688 314.238281 371.113281 314.238281 381.78125 "/><path style=" stroke:none;fill-rule:nonzero;fill:#ffffff;fill-opacity:1;" d="M 349.265625 374.78125 C 342.085938 373.667969 339.164062 376.445312 339.164062 379.449219 C 339.164062 381.78125 340.738281 383.007812 342.871094 383.007812 C 346.570312 383.007812 349.265625 380.339844 349.265625 374.78125 Z M 323.003906 344.328125 C 326.152344 342.992188 333.894531 340.882812 344.441406 340.882812 C 363.070312 340.882812 372.605469 349.550781 372.605469 363.445312 L 372.605469 398.121094 L 352.074219 398.121094 L 351.621094 394.449219 C 351.394531 392.449219 351.730469 391.121094 351.730469 391.121094 L 351.511719 391.121094 C 349.265625 396.121094 344.214844 399.785156 336.023438 399.785156 C 327.164062 399.785156 318.1875 394.785156 318.1875 382.558594 C 318.1875 368.890625 332.765625 362.335938 349.824219 364.777344 L 349.824219 364.667969 C 349.824219 360.890625 346.460938 359.441406 340.398438 359.441406 C 334.003906 359.441406 327.164062 361.554688 323.003906 364.21875 L 323.003906 344.328125 "/><path style=" stroke:none;fill-rule:nonzero;fill:#ffffff;fill-opacity:1;" d="M 377.667969 342.550781 L 384.96875 342.550781 L 384.96875 338.773438 C 384.96875 325.097656 393.601562 316.433594 410.886719 316.433594 C 414.703125 316.433594 417.84375 316.875 418.964844 317.097656 L 418.964844 335.996094 C 417.953125 335.660156 416.046875 335.214844 413.242188 335.214844 C 408.757812 335.214844 405.835938 337.324219 405.835938 341.550781 L 405.835938 342.550781 L 417.285156 342.550781 L 417.285156 359.886719 L 406.960938 359.886719 L 406.960938 398.121094 L 384.066406 398.121094 L 384.066406 359.886719 L 377.667969 359.886719 L 377.667969 342.550781 "/><path style=" stroke:none;fill-rule:nonzero;fill:#ffffff;fill-opacity:1;" d="M 449.832031 358.109375 C 445.90625 358.109375 444.003906 361.109375 444.003906 365.226562 L 455.441406 365.226562 C 455.667969 361.109375 453.765625 358.109375 449.832031 358.109375 Z M 476.878906 367 C 476.878906 370.554688 476.425781 373.890625 476.203125 374.890625 L 444.21875 374.890625 C 445.230469 379.222656 449.496094 381.003906 455.894531 381.003906 C 464.191406 381.003906 472.945312 378.558594 474.519531 378.003906 L 474.519531 396.675781 C 471.828125 397.785156 464.308594 399.785156 453.648438 399.785156 C 432.78125 399.785156 420.546875 387.230469 420.546875 370.332031 C 420.546875 353.441406 433.339844 340.882812 450.054688 340.882812 C 468.128906 340.882812 476.878906 353.109375 476.878906 367 "/><path style=" stroke:none;fill-rule:nonzero;fill:#ffffff;fill-opacity:1;" d="M 480.707031 342.550781 L 487.4375 342.550781 L 487.4375 325.878906 L 509.664062 325.878906 L 509.664062 342.550781 L 522.5625 342.550781 L 522.5625 359.886719 L 509.664062 359.886719 L 509.664062 376.003906 C 509.664062 380.222656 512.917969 381.339844 515.832031 381.339844 C 519.304688 381.339844 522.453125 380.113281 524.355469 379.222656 L 524.355469 397.34375 C 521.777344 398.453125 516.164062 399.785156 508.535156 399.785156 C 497.199219 399.785156 487.101562 394.121094 487.101562 378.894531 L 487.101562 359.886719 L 480.707031 359.886719 L 480.707031 342.550781 "/><path style=" stroke:none;fill-rule:nonzero;fill:#ffffff;fill-opacity:1;" d="M 529.199219 402.453125 C 530.097656 402.898438 532.902344 403.898438 536.496094 403.898438 C 542.214844 403.898438 545.578125 401.5625 547.265625 398.785156 L 524.59375 342.550781 L 549.394531 342.550781 L 554.671875 361.109375 C 556.242188 366.667969 557.699219 372.445312 558.597656 378.222656 L 558.824219 378.222656 C 559.609375 372.445312 561.070312 366.667969 562.640625 361.109375 L 567.910156 342.550781 L 592.601562 342.550781 L 571.167969 399.785156 C 564.660156 417.238281 553.324219 424.238281 540.085938 424.238281 C 533.914062 424.238281 530.550781 423.351562 529.199219 422.796875 L 529.199219 402.453125 "/><path style=" stroke:none;fill-rule:nonzero;fill:#597dc5;fill-opacity:1;" d="M 307.710938 437.789062 L 315.007812 437.789062 L 315.007812 434.011719 C 315.007812 420.335938 323.644531 411.671875 340.929688 411.671875 C 344.746094 411.671875 347.882812 412.113281 349 412.335938 L 349 431.230469 C 347.992188 430.898438 346.089844 430.453125 343.28125 430.453125 C 338.796875 430.453125 335.875 432.5625 335.875 436.785156 L 335.875 437.789062 L 347.324219 437.789062 L 347.324219 455.125 L 337.003906 455.125 L 337.003906 493.355469 L 314.105469 493.355469 L 314.105469 455.125 L 307.710938 455.125 L 307.710938 437.789062 "/><path style=" stroke:none;fill-rule:nonzero;fill:#597dc5;fill-opacity:1;" d="M 354.628906 493.355469 L 354.628906 437.789062 L 377.515625 437.789062 L 377.515625 493.355469 Z M 366.078125 410.558594 C 373.476562 410.558594 378.078125 414.890625 378.078125 422.007812 C 378.078125 429.117188 373.476562 433.453125 366.078125 433.453125 C 358.671875 433.453125 354.066406 429.117188 354.066406 422.007812 C 354.066406 414.890625 358.671875 410.558594 366.078125 410.558594 "/><path style=" stroke:none;fill-rule:nonzero;fill:#597dc5;fill-opacity:1;" d="M 388.746094 437.789062 L 409.390625 437.789062 L 410.289062 444.121094 C 413.65625 440.011719 419.714844 436.121094 426.113281 436.121094 C 428.019531 436.121094 429.8125 436.339844 429.8125 436.339844 L 429.8125 458.457031 C 429.8125 458.457031 428.128906 457.570312 425.4375 457.570312 C 419.152344 457.570312 411.636719 460.792969 411.636719 470.242188 L 411.636719 493.355469 L 388.746094 493.355469 L 388.746094 437.789062 "/><path style=" stroke:none;fill-rule:nonzero;fill:#597dc5;fill-opacity:1;" d="M 480.546875 477.019531 C 480.546875 488.359375 471.125 495.023438 454.96875 495.023438 C 445.207031 495.023438 438.585938 492.914062 434.996094 491.464844 L 434.996094 471.90625 C 440.15625 474.796875 449.132812 477.578125 454.742188 477.578125 C 457.207031 477.578125 459.675781 477.351562 459.675781 475.910156 C 459.675781 474.578125 456.988281 474.019531 452.605469 472.90625 C 441.617188 470.242188 433.757812 465.792969 433.757812 454.347656 C 433.757812 442.902344 441.949219 436.121094 456.421875 436.121094 C 466.410156 436.121094 473.933594 438.453125 476.847656 439.566406 L 476.847656 458.570312 C 472.246094 456.238281 463.828125 453.792969 458.441406 453.792969 C 457.097656 453.792969 454.625 453.902344 454.625 455.457031 C 454.625 456.679688 456.3125 457.570312 460.691406 458.570312 C 474.265625 461.792969 480.546875 466.351562 480.546875 477.019531 "/><path style=" stroke:none;fill-rule:nonzero;fill:#597dc5;fill-opacity:1;" d="M 483.148438 437.789062 L 489.878906 437.789062 L 489.878906 421.117188 L 512.097656 421.117188 L 512.097656 437.789062 L 525 437.789062 L 525 455.125 L 512.097656 455.125 L 512.097656 471.242188 C 512.097656 475.460938 515.355469 476.574219 518.269531 476.574219 C 521.742188 476.574219 524.890625 475.351562 526.792969 474.460938 L 526.792969 492.578125 C 524.214844 493.691406 518.605469 495.023438 510.972656 495.023438 C 499.640625 495.023438 489.542969 489.359375 489.542969 474.132812 L 489.542969 455.125 L 483.148438 455.125 L 483.148438 437.789062 "/><g clip-rule="nonzero" clip-path="url(#8274123572)"><path style=" stroke:none;fill-rule:nonzero;fill:#000000;fill-opacity:1;" d="M 427.828125 631.609375 C 310.429688 631.609375 214.914062 536.09375 214.914062 418.691406 C 214.914062 360.3125 238.074219 305.851562 280.128906 265.339844 C 281.515625 264.003906 283.734375 264.039062 285.066406 265.433594 C 286.410156 266.824219 286.367188 269.035156 284.976562 270.375 C 244.304688 309.554688 221.90625 362.226562 221.90625 418.691406 C 221.90625 532.242188 314.28125 624.617188 427.828125 624.617188 C 541.375 624.617188 633.75 532.242188 633.75 418.691406 C 633.75 305.144531 541.375 212.765625 427.828125 212.765625 C 413.855469 212.765625 399.890625 214.175781 386.324219 216.949219 C 384.4375 217.335938 382.585938 216.117188 382.199219 214.226562 C 381.808594 212.335938 383.03125 210.488281 384.925781 210.101562 C 398.949219 207.234375 413.382812 205.777344 427.828125 205.777344 C 545.226562 205.777344 640.742188 301.292969 640.742188 418.691406 C 640.742188 536.09375 545.226562 631.609375 427.828125 631.609375 "/></g><path style=" stroke:none;fill-rule:nonzero;fill:#000000;fill-opacity:1;" d="M 335.113281 206.257812 C 318.238281 206.257812 304.507812 219.984375 304.507812 236.859375 C 304.507812 253.734375 318.238281 267.460938 335.113281 267.460938 C 351.988281 267.460938 365.714844 253.734375 365.714844 236.859375 C 365.714844 219.984375 351.988281 206.257812 335.113281 206.257812 Z M 335.113281 274.453125 C 314.382812 274.453125 297.519531 257.585938 297.519531 236.859375 C 297.519531 216.132812 314.382812 199.265625 335.113281 199.265625 C 355.84375 199.265625 372.707031 216.132812 372.707031 236.859375 C 372.707031 257.585938 355.84375 274.453125 335.113281 274.453125 "/><path style=" stroke:none;fill-rule:nonzero;fill:#000000;fill-opacity:1;" d="M 452.71875 576.515625 C 450.792969 576.515625 449.226562 578.078125 449.226562 580.003906 C 449.226562 581.929688 450.792969 583.492188 452.71875 583.492188 C 454.644531 583.492188 456.207031 581.929688 456.207031 580.003906 C 456.207031 578.078125 454.644531 576.515625 452.71875 576.515625 Z M 452.71875 590.484375 C 446.941406 590.484375 442.238281 585.785156 442.238281 580.003906 C 442.238281 574.226562 446.941406 569.523438 452.71875 569.523438 C 458.5 569.523438 463.199219 574.226562 463.199219 580.003906 C 463.199219 585.785156 458.5 590.484375 452.71875 590.484375 "/><path style=" stroke:none;fill-rule:nonzero;fill:#52dea0;fill-opacity:1;" d="M 432.855469 248.71875 C 432.855469 259.0625 424.476562 267.441406 414.136719 267.441406 C 403.796875 267.441406 395.417969 259.0625 395.417969 248.71875 C 395.417969 238.382812 403.796875 230 414.136719 230 C 424.476562 230 432.855469 238.382812 432.855469 248.71875 "/><path style=" stroke:none;fill-rule:nonzero;fill:#60b7fe;fill-opacity:1;" d="M 271.617188 230 C 271.617188 237.707031 265.367188 243.957031 257.660156 243.957031 C 249.953125 243.957031 243.707031 237.707031 243.707031 230 C 243.707031 222.292969 249.953125 216.046875 257.660156 216.046875 C 265.367188 216.046875 271.617188 222.292969 271.617188 230 "/><path style=" stroke:none;fill-rule:nonzero;fill:#000000;fill-opacity:1;" d="M 527.65625 568.480469 C 525.722656 568.480469 524.160156 566.914062 524.160156 564.984375 L 524.160156 541.558594 C 524.160156 539.628906 525.722656 538.0625 527.65625 538.0625 C 529.585938 538.0625 531.148438 539.628906 531.148438 541.558594 L 531.148438 564.984375 C 531.148438 566.914062 529.585938 568.480469 527.65625 568.480469 "/><path style=" stroke:none;fill-rule:nonzero;fill:#000000;fill-opacity:1;" d="M 539.367188 556.765625 L 515.941406 556.765625 C 514.011719 556.765625 512.445312 555.203125 512.445312 553.273438 C 512.445312 551.339844 514.011719 549.777344 515.941406 549.777344 L 539.367188 549.777344 C 541.300781 549.777344 542.863281 551.339844 542.863281 553.273438 C 542.863281 555.203125 541.300781 556.765625 539.367188 556.765625 "/></g></svg>